<!DOCTYPE svg PUBLIC "-//W3C//DTD SVG 20010904//EN" "http://www.w3.org/TR/2001/REC-SVG-20010904/DTD/svg10.dtd">
<svg version="1.0" xmlns="http://www.w3.org/2000/svg" width="239px" height="240px" viewBox="0 0 2390 2400" preserveAspectRatio="xMidYMid meet">
<g id="layer101" fill="#ffffff" stroke="none">
 <path d="M970 2385 c-42 -8 -116 -28 -165 -46 -192 -67 -313 -144 -460 -294 -162 -164 -253 -321 -312 -542 -25 -91 -27 -112 -27 -303 0 -191 2 -212 27 -303 59 -221 150 -378 312 -542 240 -244 507 -355 850 -355 155 0 268 18 391 61 191 67 312 145 459 294 162 164 253 321 312 542 25 91 27 112 27 303 0 191 -2 212 -27 303 -59 221 -150 378 -312 542 -147 149 -268 227 -459 294 -49 17 -127 38 -174 46 -105 19 -339 18 -442 0z m358 -65 c446 -56 820 -377 946 -813 172 -592 -181 -1222 -779 -1392 -588 -168 -1206 181 -1379 778 -150 518 99 1077 587 1317 205 100 410 137 625 110z"/>
 <path d="M873 1892 c-16 -10 -66 -124 -99 -224 -20 -62 -28 -111 -32 -195 -5 -135 11 -200 94 -365 96 -191 104 -280 43 -464 -36 -107 -34 -127 12 -122 29 3 34 9 56 68 73 194 67 355 -21 527 l-26 52 52 15 c162 46 324 46 486 0 l52 -15 -26 -52 c-88 -172 -94 -333 -21 -527 22 -59 27 -65 56 -68 46 -5 48 15 12 122 -61 184 -53 273 43 464 83 166 100 230 93 365 -5 121 -22 190 -84 334 -35 81 -53 100 -86 87 -29 -11 -27 -35 17 -137 24 -56 51 -132 60 -168 18 -73 22 -229 6 -229 -33 0 -244 124 -302 178 l-28 26 0 162 c0 141 -2 163 -16 168 -9 4 -25 4 -35 1 -18 -6 -19 -19 -19 -169 l0 -162 -27 -26 c-59 -54 -270 -178 -303 -178 -16 0 -12 156 6 229 9 36 36 112 60 168 24 57 44 105 44 107 0 3 -7 12 -16 20 -17 17 -32 20 -51 8z m487 -526 c41 -25 98 -55 125 -67 61 -26 57 -23 50 -41 -6 -14 -13 -13 -64 2 -163 51 -389 51 -552 0 -33 -10 -59 -16 -59 -15 0 2 -3 10 -6 18 -4 10 5 18 29 26 46 15 199 104 261 151 l50 39 46 -35 c25 -18 79 -54 120 -78z"/>
 <path d="M1164 1097 c-3 -8 -4 -32 -2 -53 3 -36 5 -39 33 -39 29 0 30 1 30 50 0 47 -2 50 -28 53 -17 2 -29 -2 -33 -11z"/>
 <path d="M711 949 c-20 -8 -22 -14 -17 -39 l6 -30 -83 0 c-45 0 -88 -4 -95 -9 -8 -5 -12 -21 -10 -37 l3 -29 97 -3 c94 -3 97 -3 85 -22 -15 -25 0 -54 30 -58 26 -4 143 92 143 117 0 10 -19 34 -42 53 -72 58 -90 67 -117 57z"/>
 <path d="M1588 911 c-35 -26 -64 -57 -66 -68 -4 -28 110 -126 141 -121 30 4 45 33 30 58 -12 19 -9 19 85 22 l97 3 3 29 c2 16 -2 32 -10 37 -7 5 -50 9 -94 9 l-82 0 2 31 c1 24 -4 33 -21 40 -19 7 -34 0 -85 -40z"/>
 </g>

</svg>