<?xml version="1.0" standalone="no"?>
<!DOCTYPE svg PUBLIC "-//W3C//DTD SVG 20010904//EN"
 "http://www.w3.org/TR/2001/REC-SVG-20010904/DTD/svg10.dtd">
<svg version="1.0" xmlns="http://www.w3.org/2000/svg"
 width="239.000000pt" height="240.000000pt" viewBox="0 0 239.000000 240.000000"
 preserveAspectRatio="xMidYMid meet">

<g transform="translate(0.000000,240.000000) scale(0.100000,-0.100000)"
fill="#000000" stroke="none">
<path d="M1 1878 l0 -523 19 90 c52 243 155 433 334 611 141 140 265 218 451
283 49 18 123 38 165 46 68 12 26 13 -447 14 l-523 1 1 -522z"/>
<path d="M1420 2385 c42 -8 116 -28 165 -46 186 -65 310 -143 451 -283 179
-178 282 -368 334 -611 l19 -90 0 523 1 522 -522 -1 c-474 -1 -516 -2 -448
-14z"/>
<path d="M1050 2319 c-105 -13 -237 -55 -347 -109 -287 -141 -497 -393 -587
-703 -172 -592 181 -1223 779 -1392 522 -148 1082 111 1315 608 143 304 143
650 0 954 -207 442 -681 704 -1160 642z m-103 -509 c73 -194 67 -355 -21 -527
l-26 -52 52 -15 c162 -46 324 -46 486 0 l52 15 -26 52 c-88 172 -94 333 -21
527 22 59 27 65 56 68 46 5 48 -15 12 -122 -61 -184 -53 -273 43 -464 83 -166
100 -230 93 -365 -5 -121 -22 -190 -84 -334 -35 -82 -51 -98 -83 -88 -33 10
-30 35 14 138 24 56 51 132 60 168 18 73 22 229 6 229 -33 0 -244 -124 -302
-178 l-28 -26 0 -162 c0 -141 -2 -163 -16 -168 -9 -4 -25 -4 -35 -1 -18 6 -19
19 -19 169 l0 162 -27 26 c-59 54 -270 178 -303 178 -16 0 -12 -156 6 -229 9
-36 36 -112 60 -168 44 -102 46 -126 17 -137 -33 -13 -51 6 -86 87 -62 144
-79 213 -84 334 -7 135 10 199 93 365 96 191 104 280 43 464 -36 107 -34 127
12 122 29 -3 34 -9 56 -68z m-137 -181 c45 -37 60 -56 58 -72 -2 -11 -31 -42
-66 -68 -51 -40 -66 -47 -85 -40 -17 7 -22 16 -21 40 l2 31 -82 0 c-44 0 -87
4 -94 9 -8 5 -12 21 -10 37 l3 29 100 5 c56 3 95 9 88 13 -28 18 -7 67 28 67
10 0 45 -23 79 -51z m884 29 c8 -13 8 -23 -1 -38 -12 -19 -9 -19 85 -22 l97
-3 3 -29 c2 -16 -2 -32 -10 -37 -7 -5 -50 -9 -94 -9 l-82 0 2 -31 c1 -24 -4
-33 -21 -40 -19 -7 -34 0 -85 40 -35 26 -64 57 -66 68 -2 16 14 35 59 73 64
53 92 60 113 28z m-469 -313 c0 -49 -1 -50 -30 -50 -28 0 -30 3 -33 39 -5 54
3 68 35 64 26 -3 28 -6 28 -53z"/>
<path d="M856 1143 c-8 -21 -9 -20 27 -32 46 -15 200 -105 261 -151 l50 -39
46 35 c59 45 182 117 245 145 61 26 57 23 50 41 -6 14 -13 13 -64 -2 -72 -23
-192 -40 -276 -40 -84 0 -204 17 -276 40 -50 15 -59 16 -63 3z"/>
<path d="M1 523 l-1 -523 523 1 c473 1 515 2 447 14 -42 8 -116 28 -165 46
-186 65 -310 143 -451 283 -179 178 -282 368 -334 611 l-19 90 0 -522z"/>
<path d="M2376 990 c-10 -75 -52 -213 -91 -296 -109 -237 -319 -455 -550 -572
-86 -43 -227 -91 -315 -107 -68 -12 -26 -13 448 -14 l522 -1 0 520 c0 286 -2
520 -4 520 -2 0 -6 -23 -10 -50z"/>
</g>
</svg>
