<?xml version="1.0" standalone="no"?>
<!DOCTYPE svg PUBLIC "-//W3C//DTD SVG 20010904//EN"
 "http://www.w3.org/TR/2001/REC-SVG-20010904/DTD/svg10.dtd">
<svg version="1.0" xmlns="http://www.w3.org/2000/svg"
 width="239.000000pt" height="240.000000pt" viewBox="0 0 239.000000 240.000000"
 preserveAspectRatio="xMidYMid meet">

<g transform="translate(0.000000,240.000000) scale(0.100000,-0.100000)"
fill="#000000" stroke="none">
<path d="M1 1878 l0 -523 19 90 c52 243 155 433 334 611 141 140 265 218 451
283 49 18 123 38 165 46 68 12 26 13 -447 14 l-523 1 1 -522z"/>
<path d="M1420 2385 c42 -8 116 -28 165 -46 186 -65 310 -143 451 -283 179
-178 282 -368 334 -611 l19 -90 0 523 1 522 -522 -1 c-474 -1 -516 -2 -448
-14z"/>
<path d="M1050 2319 c-105 -13 -237 -55 -347 -109 -287 -141 -497 -393 -587
-703 -172 -592 181 -1223 779 -1392 522 -148 1082 111 1315 608 143 304 143
650 0 954 -207 442 -681 704 -1160 642z m278 -471 c63 -21 104 -41 126 -62 35
-34 237 -360 322 -522 93 -174 119 -289 80 -349 -45 -69 -266 -193 -421 -236
-66 -18 -111 -23 -255 -25 -96 -2 -190 -6 -207 -9 -18 -3 -63 -29 -100 -57
-66 -51 -119 -77 -158 -78 -40 0 -96 22 -131 52 -70 61 -69 58 -69 404 0 297
1 313 20 334 17 18 26 21 65 15 25 -3 61 -5 80 -5 222 5 224 5 266 -17 22 -12
55 -35 72 -51 l32 -30 57 24 c62 25 160 32 220 15 31 -9 32 -8 28 17 -3 15 -9
61 -15 103 -9 73 -38 161 -57 172 -5 3 -47 -1 -94 -9 -106 -18 -164 -11 -201
27 -35 34 -37 80 -7 167 57 168 128 192 347 120z"/>
<path d="M1106 1788 c-24 -21 -66 -118 -66 -153 0 -8 11 -20 25 -27 22 -10 87
-2 216 28 55 12 113 -93 136 -245 8 -53 21 -121 30 -151 21 -77 21 -110 1
-124 -14 -8 -24 -7 -45 7 -71 46 -114 59 -184 55 -57 -3 -76 -9 -114 -36 -60
-42 -87 -42 -113 2 -28 47 -92 87 -148 94 -25 2 -77 -1 -115 -8 -52 -10 -78
-11 -105 -2 l-35 10 3 -281 c3 -275 4 -283 26 -314 25 -35 80 -58 114 -48 13
4 49 27 80 51 100 78 121 84 306 84 109 0 188 5 240 16 150 31 313 109 399
190 39 37 43 44 37 75 -4 19 -19 65 -35 102 -56 134 -334 597 -374 623 -33 22
-151 61 -206 68 -40 6 -51 4 -73 -16z m-212 -744 c25 -10 19 -53 -13 -85 -16
-16 -41 -60 -55 -97 -50 -129 -113 -201 -154 -176 -29 18 -25 48 11 85 19 19
44 61 56 93 31 84 49 117 84 154 31 33 43 37 71 26z m587 -94 c30 -17 24 -55
-13 -83 -124 -93 -311 -112 -446 -45 -40 20 -47 27 -47 53 0 39 29 44 95 16
109 -47 241 -34 337 35 55 39 49 37 74 24z"/>
<path d="M1 523 l-1 -523 523 1 c473 1 515 2 447 14 -42 8 -116 28 -165 46
-186 65 -310 143 -451 283 -179 178 -282 368 -334 611 l-19 90 0 -522z"/>
<path d="M2376 990 c-10 -75 -52 -213 -91 -296 -109 -237 -319 -455 -550 -572
-86 -43 -227 -91 -315 -107 -68 -12 -26 -13 448 -14 l522 -1 0 520 c0 286 -2
520 -4 520 -2 0 -6 -23 -10 -50z"/>
</g>
</svg>
