<!DOCTYPE svg PUBLIC "-//W3C//DTD SVG 20010904//EN" "http://www.w3.org/TR/2001/REC-SVG-20010904/DTD/svg10.dtd">
<svg version="1.0" xmlns="http://www.w3.org/2000/svg" width="554px" height="311px" viewBox="0 0 5540 3110" preserveAspectRatio="xMidYMid meet">
<g id="layer101" fill="#da137c" stroke="none">
 <path d="M1099 3096 c-43 -15 -99 -53 -99 -67 0 -13 39 -89 46 -89 3 0 20 11 39 25 18 14 49 29 69 32 32 5 36 3 36 -16 0 -15 -14 -29 -51 -49 -83 -43 -109 -71 -116 -119 -5 -39 -2 -46 29 -77 58 -58 150 -61 211 -6 l32 29 -32 33 c-33 32 -33 32 -62 15 -36 -21 -61 -22 -61 -2 0 8 25 29 55 46 67 38 115 90 115 127 0 98 -105 156 -211 118z"/>
 <path d="M1679 3096 c-52 -18 -79 -40 -112 -88 -26 -39 -28 -50 -25 -109 3 -52 9 -75 31 -105 96 -138 272 -122 343 31 28 60 29 66 8 135 -20 66 -73 123 -129 139 -50 14 -71 13 -116 -3z m109 -131 c54 -45 48 -113 -13 -142 -33 -16 -37 -16 -69 0 -47 22 -68 83 -42 122 32 49 81 56 124 20z"/>
 <path d="M3833 3090 c-48 -29 -64 -61 -70 -143 -8 -106 9 -167 58 -212 32 -28 47 -35 82 -35 24 0 56 8 74 20 52 31 66 71 67 180 0 105 -16 154 -62 190 -33 26 -106 27 -149 0z m107 -106 c15 -37 12 -147 -3 -168 -17 -24 -48 -17 -65 14 -13 26 -12 146 2 169 14 22 56 13 66 -15z"/>
 <path d="M4490 3099 c-40 -16 -89 -70 -96 -105 -6 -33 20 -98 49 -123 12 -9 13 -20 6 -46 -29 -104 98 -175 175 -98 20 20 26 36 26 69 0 23 -5 46 -10 49 -6 4 0 19 14 38 35 45 42 97 21 142 -34 69 -114 102 -185 74z m88 -112 c2 -10 -4 -27 -14 -38 -16 -18 -18 -18 -36 -3 -21 20 -23 35 -6 52 18 18 52 11 56 -11z m-18 -182 c0 -25 -14 -34 -24 -16 -8 12 3 41 15 41 5 0 9 -11 9 -25z"/>
 <path d="M35 3070 c6 -26 4 -30 -14 -30 -14 0 -21 -6 -21 -19 0 -25 26 -51 51 -51 10 0 19 -4 19 -10 0 -5 -11 -10 -25 -10 -28 0 -30 -8 -14 -44 7 -15 22 -26 37 -28 20 -2 28 -11 34 -35 8 -30 12 -33 45 -33 34 0 35 1 30 30 -6 27 -4 30 17 30 18 0 25 -7 30 -30 5 -27 9 -30 42 -30 34 0 35 1 29 30 -6 26 -4 30 14 30 24 0 25 7 11 44 -7 19 -17 26 -35 26 -16 0 -25 6 -25 16 0 10 5 14 15 10 21 -8 28 14 16 47 -7 17 -19 27 -38 29 -20 2 -29 10 -33 28 -5 20 -13 26 -39 28 -32 3 -33 2 -29 -27 4 -25 1 -31 -13 -31 -10 0 -25 14 -34 30 -12 23 -22 30 -46 30 -29 0 -30 -2 -24 -30z m153 -118 c3 -9 -3 -13 -19 -10 -12 1 -24 9 -27 16 -3 9 3 13 19 10 12 -1 24 -9 27 -16z"/>
 <path d="M470 3096 c0 -3 -23 -87 -50 -187 -28 -101 -48 -189 -46 -196 7 -17 100 -18 114 0 9 11 25 62 52 167 l12 45 40 -105 c22 -58 45 -108 51 -112 21 -13 107 -9 113 5 4 11 -126 338 -149 375 -8 11 -137 19 -137 8z"/>
 <path d="M817 3093 c-4 -3 -7 -91 -7 -194 0 -206 -2 -199 65 -199 67 0 65 -8 65 206 l0 194 -58 0 c-32 0 -62 -3 -65 -7z"/>
 <path d="M1362 2903 l3 -198 29 -3 c16 -2 44 -1 63 3 l33 6 -2 192 -3 192 -63 3 -62 3 2 -198z"/>
 <path d="M1992 2903 l3 -198 50 -3 c28 -1 55 1 61 5 6 5 38 52 73 105 92 142 93 143 85 14 -6 -87 -4 -110 7 -117 21 -13 99 -11 104 4 2 6 6 96 10 200 l6 187 -64 0 c-62 0 -66 -2 -98 -37 -19 -21 -50 -63 -69 -93 l-35 -55 -5 90 -5 90 -63 3 -62 3 2 -198z"/>
 <path d="M2454 3087 c-2 -7 -3 -96 -2 -197 l3 -185 158 -3 157 -3 11 28 c5 15 9 38 7 52 -3 26 -4 26 -105 29 l-103 3 0 34 0 34 68 3 67 3 3 48 3 47 -75 0 -76 0 0 60 0 60 -55 0 c-36 0 -57 -5 -61 -13z"/>
 <path d="M2847 3093 c-4 -3 -7 -91 -7 -194 0 -206 -2 -199 65 -199 67 0 65 -8 65 206 l0 194 -58 0 c-32 0 -62 -3 -65 -7z"/>
 <path d="M3147 3093 c-4 -3 -7 -66 -7 -139 l0 -133 -52 -3 -53 -3 -3 -51 -3 -51 98 -6 c54 -3 130 -3 168 1 l70 7 0 50 0 50 -57 3 -58 3 0 139 0 140 -48 0 c-27 0 -52 -3 -55 -7z"/>
 <path d="M3430 3053 c0 -45 2 -49 76 -118 78 -73 88 -96 52 -118 -12 -8 -24 -7 -43 3 -24 13 -28 12 -57 -18 -27 -27 -30 -33 -18 -47 24 -29 88 -55 134 -55 33 0 52 7 75 26 71 60 58 164 -33 246 l-30 28 57 0 57 0 0 50 0 50 -135 0 -135 0 0 -47z"/>
 <path d="M4235 3088 c-3 -7 -6 -62 -7 -121 l-3 -109 -27 21 c-14 12 -32 21 -40 20 -19 0 -61 -57 -55 -74 3 -7 36 -39 73 -69 61 -50 73 -56 115 -56 29 0 48 5 50 13 4 13 4 64 1 265 l-2 122 -50 0 c-31 0 -52 -5 -55 -12z"/>
 <path d="M2020 2521 c11 -38 53 -159 93 -268 105 -281 111 -299 109 -373 -1 -68 -26 -178 -61 -270 -17 -44 -32 -64 -76 -98 l-56 -43 -63 31 c-94 47 -203 63 -376 56 -80 -3 -172 -12 -205 -21 -123 -31 -259 -79 -276 -96 -22 -22 -34 -156 -26 -292 6 -87 14 -123 71 -290 36 -106 72 -221 80 -257 26 -106 82 -146 258 -182 52 -11 63 -10 92 6 47 25 126 100 126 119 0 8 -12 30 -26 47 l-27 31 29 30 28 29 -21 21 -21 21 -64 -20 c-91 -31 -162 -51 -165 -48 -2 1 -12 38 -24 82 -31 120 -29 230 4 331 l28 83 37 -19 c92 -47 220 -65 290 -40 29 10 36 7 124 -56 105 -76 130 -90 204 -115 158 -55 434 -66 524 -22 67 32 112 74 145 133 29 53 30 57 30 199 -1 125 -4 159 -28 245 -57 214 -133 413 -268 697 -86 182 -144 324 -155 382 l-6 36 -173 0 -174 0 19 -69z"/>
 <path d="M2480 2580 c0 -35 104 -294 244 -603 201 -448 217 -502 220 -757 3 -216 17 -263 105 -351 98 -97 147 -115 479 -170 213 -36 306 -55 362 -78 180 -71 426 -135 868 -225 150 -31 285 -62 300 -70 34 -18 82 -69 116 -124 29 -46 63 -59 52 -20 -15 55 -18 96 -7 102 17 11 176 -22 245 -50 33 -13 63 -24 68 -24 17 0 7 40 -17 68 -33 40 -122 76 -385 157 -216 66 -575 197 -880 320 -90 36 -277 100 -414 141 -275 81 -320 103 -423 198 -76 71 -99 111 -115 205 -13 75 -14 68 41 219 17 46 31 99 31 117 0 48 -39 88 -126 132 -93 45 -123 80 -233 271 -116 202 -140 275 -156 475 l-7 77 -184 0 c-112 0 -184 -4 -184 -10z"/>
 <path d="M2710 845 c-104 -47 -206 -163 -240 -273 -76 -246 72 -512 299 -539 31 -3 51 -1 55 6 4 6 13 11 19 11 7 0 6 -4 -3 -10 -32 -20 104 -49 173 -36 86 16 165 133 187 274 40 258 -180 623 -318 526 -12 -8 -22 -11 -22 -5 0 15 -55 51 -87 56 -15 3 -44 -2 -63 -10z m317 -482 c-2 -16 -4 -5 -4 22 0 28 2 40 4 28 2 -13 2 -35 0 -50z"/>
 </g>
<g id="layer102" fill="#00a2e8" stroke="none">
 <path d="M1099 3096 c-43 -15 -99 -53 -99 -67 0 -13 39 -89 46 -89 3 0 20 11 39 25 18 14 49 29 69 32 32 5 36 3 36 -16 0 -15 -14 -29 -51 -49 -83 -43 -109 -71 -116 -119 -5 -39 -2 -46 29 -77 58 -58 150 -61 211 -6 l32 29 -32 33 c-33 32 -33 32 -62 15 -36 -21 -61 -22 -61 -2 0 8 25 29 55 46 67 38 115 90 115 127 0 98 -105 156 -211 118z"/>
 <path d="M1679 3096 c-52 -18 -79 -40 -112 -88 -26 -39 -28 -50 -25 -109 3 -52 9 -75 31 -105 96 -138 272 -122 343 31 28 60 29 66 8 135 -20 66 -73 123 -129 139 -50 14 -71 13 -116 -3z m109 -131 c54 -45 48 -113 -13 -142 -33 -16 -37 -16 -69 0 -47 22 -68 83 -42 122 32 49 81 56 124 20z"/>
 <path d="M3833 3090 c-48 -29 -64 -61 -70 -143 -8 -106 9 -167 58 -212 32 -28 47 -35 82 -35 24 0 56 8 74 20 52 31 66 71 67 180 0 105 -16 154 -62 190 -33 26 -106 27 -149 0z m107 -106 c15 -37 12 -147 -3 -168 -17 -24 -48 -17 -65 14 -13 26 -12 146 2 169 14 22 56 13 66 -15z"/>
 <path d="M4490 3099 c-40 -16 -89 -70 -96 -105 -6 -33 20 -98 49 -123 12 -9 13 -20 6 -46 -29 -104 98 -175 175 -98 20 20 26 36 26 69 0 23 -5 46 -10 49 -6 4 0 19 14 38 35 45 42 97 21 142 -34 69 -114 102 -185 74z m88 -112 c2 -10 -4 -27 -14 -38 -16 -18 -18 -18 -36 -3 -21 20 -23 35 -6 52 18 18 52 11 56 -11z m-18 -182 c0 -25 -14 -34 -24 -16 -8 12 3 41 15 41 5 0 9 -11 9 -25z"/>
 <path d="M35 3070 c6 -26 4 -30 -14 -30 -14 0 -21 -6 -21 -19 0 -25 26 -51 51 -51 10 0 19 -4 19 -10 0 -5 -11 -10 -25 -10 -28 0 -30 -8 -14 -44 7 -15 22 -26 37 -28 20 -2 28 -11 34 -35 8 -30 12 -33 45 -33 34 0 35 1 30 30 -6 27 -4 30 17 30 18 0 25 -7 30 -30 5 -27 9 -30 42 -30 34 0 35 1 29 30 -6 26 -4 30 14 30 24 0 25 7 11 44 -7 19 -17 26 -35 26 -16 0 -25 6 -25 16 0 10 5 14 15 10 21 -8 28 14 16 47 -7 17 -19 27 -38 29 -20 2 -29 10 -33 28 -5 20 -13 26 -39 28 -32 3 -33 2 -29 -27 4 -25 1 -31 -13 -31 -10 0 -25 14 -34 30 -12 23 -22 30 -46 30 -29 0 -30 -2 -24 -30z m153 -118 c3 -9 -3 -13 -19 -10 -12 1 -24 9 -27 16 -3 9 3 13 19 10 12 -1 24 -9 27 -16z"/>
 <path d="M470 3096 c0 -3 -23 -87 -50 -187 -28 -101 -48 -189 -46 -196 7 -17 100 -18 114 0 9 11 25 62 52 167 l12 45 40 -105 c22 -58 45 -108 51 -112 21 -13 107 -9 113 5 4 11 -126 338 -149 375 -8 11 -137 19 -137 8z"/>
 <path d="M817 3093 c-4 -3 -7 -91 -7 -194 0 -206 -2 -199 65 -199 67 0 65 -8 65 206 l0 194 -58 0 c-32 0 -62 -3 -65 -7z"/>
 <path d="M1362 2903 l3 -198 29 -3 c16 -2 44 -1 63 3 l33 6 -2 192 -3 192 -63 3 -62 3 2 -198z"/>
 <path d="M1992 2903 l3 -198 50 -3 c28 -1 55 1 61 5 6 5 38 52 73 105 92 142 93 143 85 14 -6 -87 -4 -110 7 -117 21 -13 99 -11 104 4 2 6 6 96 10 200 l6 187 -64 0 c-62 0 -66 -2 -98 -37 -19 -21 -50 -63 -69 -93 l-35 -55 -5 90 -5 90 -63 3 -62 3 2 -198z"/>
 <path d="M3430 3053 c0 -45 2 -49 76 -118 78 -73 88 -96 52 -118 -12 -8 -24 -7 -43 3 -24 13 -28 12 -57 -18 -27 -27 -30 -33 -18 -47 24 -29 88 -55 134 -55 33 0 52 7 75 26 71 60 58 164 -33 246 l-30 28 57 0 57 0 0 50 0 50 -135 0 -135 0 0 -47z"/>
 <path d="M4235 3088 c-3 -7 -6 -62 -7 -121 l-3 -109 -27 21 c-14 12 -32 21 -40 20 -19 0 -61 -57 -55 -74 3 -7 36 -39 73 -69 61 -50 73 -56 115 -56 29 0 48 5 50 13 4 13 4 64 1 265 l-2 122 -50 0 c-31 0 -52 -5 -55 -12z"/>
 <path d="M2020 2521 c11 -38 53 -159 93 -268 105 -281 111 -299 109 -373 -1 -68 -26 -178 -61 -270 -17 -44 -32 -64 -76 -98 l-56 -43 -63 31 c-94 47 -203 63 -376 56 -80 -3 -172 -12 -205 -21 -123 -31 -259 -79 -276 -96 -22 -22 -34 -156 -26 -292 6 -87 14 -123 71 -290 36 -106 72 -221 80 -257 26 -106 82 -146 258 -182 52 -11 63 -10 92 6 47 25 126 100 126 119 0 8 -12 30 -26 47 l-27 31 29 30 28 29 -21 21 -21 21 -64 -20 c-91 -31 -162 -51 -165 -48 -2 1 -12 38 -24 82 -31 120 -29 230 4 331 l28 83 37 -19 c92 -47 220 -65 290 -40 29 10 36 7 124 -56 105 -76 130 -90 204 -115 158 -55 434 -66 524 -22 67 32 112 74 145 133 29 53 30 57 30 199 -1 125 -4 159 -28 245 -57 214 -133 413 -268 697 -86 182 -144 324 -155 382 l-6 36 -173 0 -174 0 19 -69z"/>
 <path d="M2710 844 c-56 -24 -139 -94 -181 -153 -174 -242 -44 -613 229 -657 54 -9 136 29 181 83 71 86 101 260 67 393 -35 137 -134 303 -201 334 -40 19 -50 19 -95 0z"/>
 </g>
<g id="layer103" fill="#ffffff" stroke="none">
 <path d="M3833 3090 c-48 -29 -64 -61 -70 -143 -8 -106 9 -167 58 -212 32 -28 47 -35 82 -35 24 0 56 8 74 20 52 31 66 71 67 180 0 105 -16 154 -62 190 -33 26 -106 27 -149 0z m107 -106 c15 -37 12 -147 -3 -168 -17 -24 -48 -17 -65 14 -13 26 -12 146 2 169 14 22 56 13 66 -15z"/>
 <path d="M4490 3099 c-40 -16 -89 -70 -96 -105 -6 -33 20 -98 49 -123 12 -9 13 -20 6 -46 -29 -104 98 -175 175 -98 20 20 26 36 26 69 0 23 -5 46 -10 49 -6 4 0 19 14 38 35 45 42 97 21 142 -34 69 -114 102 -185 74z m88 -112 c2 -10 -4 -27 -14 -38 -16 -18 -18 -18 -36 -3 -21 20 -23 35 -6 52 18 18 52 11 56 -11z m-18 -182 c0 -25 -14 -34 -24 -16 -8 12 3 41 15 41 5 0 9 -11 9 -25z"/>
 <path d="M3430 3053 c0 -45 2 -49 76 -118 78 -73 88 -96 52 -118 -12 -8 -24 -7 -43 3 -24 13 -28 12 -57 -18 -27 -27 -30 -33 -18 -47 24 -29 88 -55 134 -55 33 0 52 7 75 26 71 60 58 164 -33 246 l-30 28 57 0 57 0 0 50 0 50 -135 0 -135 0 0 -47z"/>
 <path d="M4235 3088 c-3 -7 -6 -62 -7 -121 l-3 -109 -27 21 c-14 12 -32 21 -40 20 -19 0 -61 -57 -55 -74 3 -7 36 -39 73 -69 61 -50 73 -56 115 -56 29 0 48 5 50 13 4 13 4 64 1 265 l-2 122 -50 0 c-31 0 -52 -5 -55 -12z"/>
 </g>

</svg>