<?xml version="1.0" standalone="no"?>
<!DOCTYPE svg PUBLIC "-//W3C//DTD SVG 20010904//EN"
 "http://www.w3.org/TR/2001/REC-SVG-20010904/DTD/svg10.dtd">
<svg version="1.0" xmlns="http://www.w3.org/2000/svg"
 width="239.000000pt" height="240.000000pt" viewBox="0 0 239.000000 240.000000"
 preserveAspectRatio="xMidYMid meet">

<g transform="translate(0.000000,240.000000) scale(0.100000,-0.100000)"
fill="#000000" stroke="none">
<path d="M1 1878 l0 -523 19 90 c52 243 155 433 334 611 141 140 265 218 451
283 49 18 123 38 165 46 68 12 26 13 -447 14 l-523 1 1 -522z"/>
<path d="M1420 2385 c42 -8 116 -28 165 -46 186 -65 310 -143 451 -283 179
-178 282 -368 334 -611 l19 -90 0 523 1 522 -522 -1 c-474 -1 -516 -2 -448
-14z"/>
<path d="M1050 2319 c-105 -13 -237 -55 -347 -109 -287 -141 -497 -393 -587
-703 -172 -592 181 -1223 779 -1392 522 -148 1082 111 1315 608 143 304 143
650 0 954 -207 442 -681 704 -1160 642z m643 -513 c50 -18 76 -42 98 -91 17
-37 19 -75 19 -515 0 -440 -2 -478 -19 -515 -22 -49 -48 -73 -98 -91 -56 -19
-940 -19 -996 0 -50 18 -76 42 -98 91 -17 37 -19 75 -19 515 0 440 2 478 19
515 22 49 48 73 98 91 56 19 940 19 996 0z"/>
<path d="M702 1724 c-52 -36 -52 -39 -52 -524 0 -381 2 -456 15 -480 32 -62
14 -60 530 -60 516 0 498 -2 530 60 22 43 22 917 0 960 -32 62 -14 60 -530 60
-410 0 -473 -2 -493 -16z m703 -59 c21 -20 25 -34 25 -81 0 -66 -22 -109 -72
-139 -28 -17 -51 -20 -163 -20 -112 0 -135 3 -163 20 -50 30 -72 73 -72 139 0
47 4 61 25 81 24 25 26 25 210 25 184 0 186 0 210 -25z m-402 -285 c58 -51 69
-134 41 -295 l-17 -91 33 -67 c26 -55 31 -73 25 -107 -18 -104 -138 -153 -219
-89 -38 30 -50 56 -57 129 -4 40 -21 99 -43 152 -20 48 -40 110 -43 138 -12
102 35 187 129 234 70 35 109 34 151 -4z m535 4 c94 -47 141 -132 129 -234 -3
-28 -23 -90 -43 -138 -22 -53 -39 -112 -43 -152 -7 -73 -19 -99 -57 -129 -81
-64 -201 -15 -219 89 -6 34 -1 52 25 107 l33 67 -17 91 c-28 161 -17 244 41
295 42 38 81 39 151 4z"/>
<path d="M1037 1614 c-16 -16 -6 -66 18 -89 23 -24 30 -25 140 -25 111 0 117
1 141 25 19 19 24 34 22 58 l-3 32 -156 3 c-85 1 -158 -1 -162 -4z"/>
<path d="M888 1320 c-20 -11 -50 -36 -65 -57 -42 -54 -38 -112 15 -235 29 -68
42 -112 42 -144 0 -45 13 -82 34 -96 20 -14 63 -8 79 10 23 25 21 51 -8 114
-29 62 -30 92 -9 208 17 98 11 173 -17 201 -23 23 -25 23 -71 -1z"/>
<path d="M1431 1321 c-28 -28 -34 -103 -17 -201 21 -116 20 -146 -9 -208 -30
-64 -31 -93 -7 -115 19 -18 59 -22 78 -9 21 14 34 51 34 96 0 32 13 76 42 144
53 123 57 181 15 235 -23 31 -91 77 -112 77 -3 0 -14 -9 -24 -19z"/>
<path d="M1 523 l-1 -523 523 1 c473 1 515 2 447 14 -42 8 -116 28 -165 46
-186 65 -310 143 -451 283 -179 178 -282 368 -334 611 l-19 90 0 -522z"/>
<path d="M2376 990 c-10 -75 -52 -213 -91 -296 -109 -237 -319 -455 -550 -572
-86 -43 -227 -91 -315 -107 -68 -12 -26 -13 448 -14 l522 -1 0 520 c0 286 -2
520 -4 520 -2 0 -6 -23 -10 -50z"/>
</g>
</svg>
