<!DOCTYPE svg PUBLIC "-//W3C//DTD SVG 20010904//EN" "http://www.w3.org/TR/2001/REC-SVG-20010904/DTD/svg10.dtd">
<svg version="1.0" xmlns="http://www.w3.org/2000/svg" width="239px" height="240px" viewBox="0 0 2390 2400" preserveAspectRatio="xMidYMid meet">
<g id="layer101" fill="#ffffff" stroke="none">
 <path d="M970 2385 c-42 -8 -116 -28 -165 -46 -192 -67 -313 -144 -460 -294 -162 -164 -253 -321 -312 -542 -25 -91 -27 -112 -27 -303 0 -191 2 -212 27 -303 59 -221 150 -378 312 -542 240 -244 507 -355 850 -355 155 0 268 18 391 61 191 67 312 145 459 294 162 164 253 321 312 542 25 91 27 112 27 303 0 191 -2 212 -27 303 -59 221 -150 378 -312 542 -147 149 -268 227 -459 294 -49 17 -127 38 -174 46 -105 19 -339 18 -442 0z m358 -65 c446 -56 820 -377 946 -813 172 -592 -181 -1222 -779 -1392 -588 -168 -1206 181 -1379 778 -150 518 99 1077 587 1317 205 100 410 137 625 110z"/>
 <path d="M697 1806 c-50 -18 -76 -42 -98 -91 -17 -37 -19 -75 -19 -515 0 -440 2 -478 19 -515 22 -49 48 -73 98 -91 56 -19 940 -19 996 0 50 18 76 42 98 91 17 37 19 75 19 515 0 440 -2 478 -19 515 -22 49 -48 73 -98 91 -56 19 -940 19 -996 0z m991 -82 c52 -36 52 -39 52 -524 0 -381 -2 -456 -15 -480 -32 -62 -14 -60 -530 -60 -516 0 -498 -2 -530 60 -13 24 -15 99 -15 480 0 381 2 456 15 480 32 62 14 60 530 60 410 0 473 -2 493 -16z"/>
 <path d="M891 1682 c-53 -26 -75 -64 -82 -140 -4 -43 -20 -98 -43 -154 -20 -48 -40 -110 -43 -138 -12 -102 35 -187 129 -234 70 -35 109 -34 151 4 58 51 69 134 41 295 l-17 91 33 67 c26 55 31 73 25 106 -8 50 -38 89 -81 107 -44 18 -72 18 -113 -4z m101 -79 c24 -22 23 -51 -7 -115 -29 -62 -30 -87 -9 -210 20 -114 10 -189 -27 -208 -26 -15 -90 19 -126 67 -42 54 -38 112 15 235 29 68 42 112 42 144 0 45 13 82 34 96 19 13 59 9 78 -9z"/>
 <path d="M1384 1686 c-41 -19 -71 -58 -79 -107 -6 -33 -1 -51 25 -106 l33 -67 -17 -91 c-28 -161 -17 -244 41 -295 42 -38 81 -39 151 -4 94 47 141 132 129 234 -3 28 -23 90 -43 138 -23 55 -39 111 -43 152 -6 70 -26 110 -66 136 -34 22 -94 27 -131 10z m92 -74 c21 -14 34 -51 34 -96 0 -32 13 -76 42 -144 53 -123 57 -181 15 -235 -36 -48 -100 -82 -126 -67 -37 19 -47 94 -27 208 21 123 20 148 -9 210 -29 63 -31 89 -8 114 16 18 59 24 79 10z"/>
 <path d="M1074 971 c-76 -19 -114 -71 -114 -154 0 -48 4 -62 25 -82 24 -25 26 -25 210 -25 184 0 186 0 210 25 21 20 25 34 25 81 0 66 -20 106 -69 137 -29 17 -53 21 -145 23 -61 2 -125 0 -142 -5z m262 -96 c19 -19 24 -34 22 -58 l-3 -32 -160 0 -160 0 -3 32 c-2 24 3 39 22 58 24 24 30 25 141 25 111 0 117 -1 141 -25z"/>
 </g>

</svg>